<?xml version="1.0" encoding="UTF-8" standalone="no"?>
<!-- Created with Inkscape (http://www.inkscape.org/) -->

<svg
   width="297mm"
   height="210mm"
   viewBox="0 0 297 210"
   version="1.1"
   id="svg5"
   inkscape:version="1.1.1 (3bf5ae0d25, 2021-09-20)"
   sodipodi:docname="Stamp_red_new.svg"
   inkscape:export-filename="/home/emssej/Dokumenty/Programowanie/ld51/work/Stamp_red_new.png"
   inkscape:export-xdpi="8"
   inkscape:export-ydpi="8"
   xmlns:inkscape="http://www.inkscape.org/namespaces/inkscape"
   xmlns:sodipodi="http://sodipodi.sourceforge.net/DTD/sodipodi-0.dtd"
   xmlns="http://www.w3.org/2000/svg"
   xmlns:svg="http://www.w3.org/2000/svg">
  <sodipodi:namedview
     id="namedview7"
     pagecolor="#ffffff"
     bordercolor="#666666"
     borderopacity="1.0"
     inkscape:pageshadow="2"
     inkscape:pageopacity="0.0"
     inkscape:pagecheckerboard="0"
     inkscape:document-units="mm"
     showgrid="false"
     inkscape:zoom="0.42709131"
     inkscape:cx="803.10695"
     inkscape:cy="559.5993"
     inkscape:window-width="1600"
     inkscape:window-height="831"
     inkscape:window-x="0"
     inkscape:window-y="0"
     inkscape:window-maximized="1"
     inkscape:current-layer="layer2" />
  <defs
     id="defs2">
    <inkscape:path-effect
       effect="roughen"
       id="path-effect1394"
       is_visible="true"
       lpeversion="1.1"
       method="segments"
       max_segment_size="5"
       segments="16"
       displace_x="3;3268794192"
       displace_y="3;2035420576"
       global_randomize="1;1"
       handles="along"
       shift_nodes="true"
       fixed_displacement="false"
       spray_tool_friendly="false" />
  </defs>
  <g
     inkscape:label="Border"
     inkscape:groupmode="layer"
     id="layer1"
     sodipodi:insensitive="true">
    <path
       style="fill:none;fill-opacity:1;stroke:#ff0000;stroke-width:5;stroke-linecap:square;stroke-linejoin:round;stroke-miterlimit:4;stroke-dasharray:5, 15;stroke-dashoffset:15.5;paint-order:normal"
       id="rect47"
       width="289.01627"
       height="203.14925"
       x="3.3608327"
       y="1.6458942"
       inkscape:path-effect="#path-effect1394"
       d="m 5.0446248,3.2429401 17.0524542,0.090866 17.261581,0.075902 17.977998,2.1802262 20.445338,2.6106889 15.698251,0.2595707 18.090773,-0.442251 18.68604,-0.039351 17.82387,-0.5502968 17.85634,-0.8425561 16.98538,-0.711985 19.49302,-0.9334928 17.45394,-0.6036889 17.9282,2.1325294 18.59015,-0.8618891 17.6687,-1.9202862 17.03174,-2.5757005 0.84519,12.5784958 1.09758,13.517086 1.10117,12.220272 -0.40806,10.273963 0.77356,14.750077 -2.4747,12.084879 -2.24052,14.720403 0.13083,12.566058 0.30565,11.36891 0.29313,11.86724 1.23284,16.25167 0.14615,12.3309 0.95817,11.64023 0.86991,12.97872 -0.84421,10.46937 -1.64062,14.39523 -19.94396,-1.02159 -18.29322,-1.30403 -14.34759,0.0135 -18.20079,-1.27267 -19.30798,0.81696 -17.25751,-0.44386 -16.1504,-2.39995 -20.39752,0.64171 -19.7107,1.67843 -14.12985,1.09276 -19.752739,1.68881 -17.867078,-2.6247 -18.546044,1.17807 -17.236837,0.49855 -17.855897,2.53151 L 3.0971608,203.09858 3.2526174,189.30272 3.2037021,179.37825 4.2040708,165.93902 5.607072,152.25434 4.5194533,140.15231 4.3327273,128.27326 4.8114103,114.35829 5.6488447,104.40624 5.9067964,88.249257 4.9102133,77.406601 4.8743232,64.58078 3.2353165,51.482887 2.602677,38.616613 2.5486491,24.537907 3.1181877,14.302008 Z"
       sodipodi:type="rect" />
  </g>
  <g
     inkscape:groupmode="layer"
     id="layer2"
     inkscape:label="Text"
     sodipodi:insensitive="true">
    <text
       xml:space="preserve"
       style="font-style:normal;font-variant:normal;font-weight:normal;font-stretch:normal;font-size:33.8667px;line-height:1.25;font-family:'DejaVu Sans Mono';-inkscape-font-specification:'DejaVu Sans Mono';text-align:center;text-anchor:middle;fill:#ff0000;stroke-width:0.264583"
       x="151.19545"
       y="72.009735"
       id="text8087"><tspan
         sodipodi:role="line"
         id="tspan8085"
         style="font-style:normal;font-variant:normal;font-weight:normal;font-stretch:normal;font-size:33.8667px;font-family:'DejaVu Sans Mono';-inkscape-font-specification:'DejaVu Sans Mono';text-align:center;text-anchor:middle;fill:#ff0000;stroke-width:0.264583"
         x="151.19545"
         y="72.009735">Stamped</tspan><tspan
         sodipodi:role="line"
         style="font-style:normal;font-variant:normal;font-weight:normal;font-stretch:normal;font-size:33.8667px;font-family:'DejaVu Sans Mono';-inkscape-font-specification:'DejaVu Sans Mono';text-align:center;text-anchor:middle;fill:#ff0000;stroke-width:0.264583"
         x="151.19545"
         y="114.34311"
         id="tspan8221">Declined</tspan><tspan
         sodipodi:role="line"
         style="font-style:normal;font-variant:normal;font-weight:normal;font-stretch:normal;font-size:33.8667px;font-family:'DejaVu Sans Mono';-inkscape-font-specification:'DejaVu Sans Mono';text-align:center;text-anchor:middle;fill:#ff0000;stroke-width:0.264583"
         x="151.19545"
         y="156.67648"
         id="tspan8223">Bullcrap LLC.</tspan><tspan
         sodipodi:role="line"
         style="font-style:normal;font-variant:normal;font-weight:normal;font-stretch:normal;font-size:33.8667px;font-family:'DejaVu Sans Mono';-inkscape-font-specification:'DejaVu Sans Mono';text-align:center;text-anchor:middle;fill:#ff0000;stroke-width:0.264583"
         x="151.19545"
         y="199.00986"
         id="tspan14967" /></text>
  </g>
</svg>
